# xmcd CD database file
#
# Track frame offsets:
#	150
#	30597
#	61587
#	87470
#	125122
#	155345
#
# Disc length: 2387 seconds
#
# Revision: 0
# Processed by: cddbd v1.5.2PL0 Copyright (c) Steve Scherf et al.
# Submitted via: CDex 1.70beta2
#
DISCID=45095106
DTITLE=Curtis Fuller - Meets Roma Jazz Trio
DYEAR=1900
DGENRE=Jazz
TTITLE0=Impressions
TTITLE1=L.E.D.'s Delight
TTITLE2=Jazz Island
TTITLE3=Naima
TTITLE4=Afternoon In Paris
TTITLE5=Blue Bossa
EXTD=
EXTT0=
EXTT1=
EXTT2=
EXTT3=
EXTT4=
EXTT5=
PLAYORDER=
